<svg width="393" height="114" viewBox="0 0 393 114" fill="none" xmlns="http://www.w3.org/2000/svg">
<path d="M0.793 0.400998H31.7915C37.3972 0.400998 42.459 1.32133 46.977 3.16199C51.5787 5.00266 55.4692 7.76366 58.6485 11.445C61.9115 15.0427 64.4215 19.6025 66.1785 25.1245C67.9355 30.5628 68.814 36.9215 68.814 44.2005C68.814 51.4795 67.9355 57.88 66.1785 63.402C64.4215 68.8403 61.9115 73.4002 58.6485 77.0815C55.4692 80.6792 51.5787 83.3983 46.977 85.239C42.459 87.0797 37.3972 88 31.7915 88H0.793V0.400998ZM31.7915 75.45C38.3175 75.45 43.5885 73.4002 47.6045 69.3005C51.6205 65.2008 53.6285 59.1768 53.6285 51.2285V37.1725C53.6285 29.2242 51.6205 23.2002 47.6045 19.1005C43.5885 15.0008 38.3175 12.951 31.7915 12.951H14.9745V75.45H31.7915ZM106.039 89.506C101.354 89.506 97.1708 88.7112 93.4895 87.1215C89.8081 85.5318 86.6706 83.2728 84.077 80.3445C81.4833 77.3325 79.4753 73.7348 78.053 69.5515C76.7143 65.2845 76.045 60.5573 76.045 55.37C76.045 50.1827 76.7143 45.4973 78.053 41.314C79.4753 37.047 81.4833 33.4493 84.077 30.521C86.6706 27.509 89.8081 25.2082 93.4895 23.6185C97.1708 22.0288 101.354 21.234 106.039 21.234C110.808 21.234 114.992 22.0707 118.589 23.744C122.271 25.4173 125.325 27.76 127.751 30.772C130.177 33.7003 131.976 37.1307 133.147 41.063C134.402 44.9953 135.03 49.2205 135.03 53.7385V58.884H90.2265V61.0175C90.2265 66.0375 91.6906 70.179 94.619 73.442C97.631 76.6213 101.898 78.211 107.42 78.211C111.436 78.211 114.824 77.3325 117.585 75.5755C120.346 73.8185 122.689 71.434 124.613 68.422L132.645 76.3285C130.219 80.3445 126.705 83.5657 122.103 85.992C117.502 88.3347 112.147 89.506 106.039 89.506ZM106.039 31.9015C103.697 31.9015 101.521 32.3198 99.5135 33.1565C97.5891 33.9932 95.9158 35.1645 94.4935 36.6705C93.1548 38.1765 92.109 39.9753 91.356 42.067C90.603 44.1587 90.2265 46.4595 90.2265 48.9695V49.848H120.597V48.593C120.597 43.573 119.301 39.557 116.707 36.545C114.113 33.4493 110.557 31.9015 106.039 31.9015ZM170.755 89.506C166.07 89.506 161.887 88.7112 158.205 87.1215C154.524 85.5318 151.386 83.2728 148.793 80.3445C146.199 77.3325 144.191 73.7348 142.769 69.5515C141.43 65.2845 140.761 60.5573 140.761 55.37C140.761 50.1827 141.43 45.4973 142.769 41.314C144.191 37.047 146.199 33.4493 148.793 30.521C151.386 27.509 154.524 25.2082 158.205 23.6185C161.887 22.0288 166.07 21.234 170.755 21.234C175.524 21.234 179.708 22.0707 183.305 23.744C186.987 25.4173 190.04 27.76 192.467 30.772C194.893 33.7003 196.692 37.1307 197.863 41.063C199.118 44.9953 199.746 49.2205 199.746 53.7385V58.884H154.942V61.0175C154.942 66.0375 156.406 70.179 159.335 73.442C162.347 76.6213 166.614 78.211 172.136 78.211C176.152 78.211 179.54 77.3325 182.301 75.5755C185.062 73.8185 187.405 71.434 189.329 68.422L197.361 76.3285C194.935 80.3445 191.421 83.5657 186.819 85.992C182.218 88.3347 176.863 89.506 170.755 89.506ZM170.755 31.9015C168.413 31.9015 166.237 32.3198 164.229 33.1565C162.305 33.9932 160.632 35.1645 159.209 36.6705C157.871 38.1765 156.825 39.9753 156.072 42.067C155.319 44.1587 154.942 46.4595 154.942 48.9695V49.848H185.313V48.593C185.313 43.573 184.016 39.557 181.423 36.545C178.829 33.4493 175.273 31.9015 170.755 31.9015ZM209.869 22.74H223.549V33.533H224.176C225.598 29.6007 227.899 26.5887 231.079 24.497C234.342 22.3217 238.148 21.234 242.499 21.234C250.782 21.234 257.183 24.246 261.701 30.27C266.219 36.2103 268.478 44.577 268.478 55.37C268.478 66.163 266.219 74.5715 261.701 80.5955C257.183 86.5358 250.782 89.506 242.499 89.506C238.148 89.506 234.342 88.4183 231.079 86.243C227.899 84.0677 225.598 81.0557 224.176 77.207H223.549V113.1H209.869V22.74ZM238.358 77.709C243.127 77.709 246.933 76.203 249.778 73.191C252.623 70.0953 254.045 66.0375 254.045 61.0175V49.7225C254.045 44.7025 252.623 40.6865 249.778 37.6745C246.933 34.5788 243.127 33.031 238.358 33.031C234.174 33.031 230.66 34.0768 227.816 36.1685C224.971 38.1765 223.549 40.8538 223.549 44.2005V66.5395C223.549 69.8862 224.971 72.6053 227.816 74.697C230.66 76.705 234.174 77.709 238.358 77.709ZM334.842 88L326.935 64.2805H294.18L286.524 88H272.092L301.961 0.400998H319.782L349.651 88H334.842ZM310.871 13.453H310.244L297.568 52.107H323.421L310.871 13.453ZM354.433 88V76.454H366.356V11.947H354.433V0.400998H392.585V11.947H380.537V76.454H392.585V88H354.433Z" fill="white"/>
</svg>
