<svg width="391" height="113" viewBox="0 0 391 113" fill="none" xmlns="http://www.w3.org/2000/svg">
<path d="M0.75 0.75H31.625C37.2083 0.75 42.25 1.6667 46.75 3.5C51.3333 5.3333 55.2083 8.0833 58.375 11.75C61.625 15.3333 64.125 19.875 65.875 25.375C67.625 30.7917 68.5 37.125 68.5 44.375C68.5 51.625 67.625 58 65.875 63.5C64.125 68.917 61.625 73.458 58.375 77.125C55.2083 80.708 51.3333 83.417 46.75 85.25C42.25 87.083 37.2083 88 31.625 88H0.75V0.75ZM31.625 75.5C38.125 75.5 43.375 73.458 47.375 69.375C51.375 65.292 53.375 59.292 53.375 51.375V37.375C53.375 29.4583 51.375 23.4583 47.375 19.375C43.375 15.2917 38.125 13.25 31.625 13.25H14.875V75.5H31.625ZM105.577 89.5C100.91 89.5 96.744 88.708 93.077 87.125C89.4105 85.542 86.2855 83.292 83.7021 80.375C81.1188 77.375 79.1188 73.792 77.7021 69.625C76.3688 65.375 75.7021 60.667 75.7021 55.5C75.7021 50.3333 76.3688 45.6667 77.7021 41.5C79.1188 37.25 81.1188 33.6667 83.7021 30.75C86.2855 27.75 89.4105 25.4583 93.077 23.875C96.744 22.2917 100.91 21.5 105.577 21.5C110.327 21.5 114.494 22.3333 118.077 24C121.744 25.6667 124.785 28 127.202 31C129.619 33.9167 131.41 37.3333 132.577 41.25C133.827 45.1667 134.452 49.375 134.452 53.875V59H89.8271V61.125C89.8271 66.125 91.285 70.25 94.202 73.5C97.202 76.667 101.452 78.25 106.952 78.25C110.952 78.25 114.327 77.375 117.077 75.625C119.827 73.875 122.16 71.5 124.077 68.5L132.077 76.375C129.66 80.375 126.16 83.583 121.577 86C116.994 88.333 111.66 89.5 105.577 89.5ZM105.577 32.125C103.244 32.125 101.077 32.5417 99.077 33.375C97.16 34.2083 95.494 35.375 94.077 36.875C92.744 38.375 91.702 40.1667 90.952 42.25C90.202 44.3333 89.8271 46.625 89.8271 49.125V50H120.077V48.75C120.077 43.75 118.785 39.75 116.202 36.75C113.619 33.6667 110.077 32.125 105.577 32.125ZM170.035 89.5C165.368 89.5 161.202 88.708 157.535 87.125C153.868 85.542 150.743 83.292 148.16 80.375C145.577 77.375 143.577 73.792 142.16 69.625C140.827 65.375 140.16 60.667 140.16 55.5C140.16 50.3333 140.827 45.6667 142.16 41.5C143.577 37.25 145.577 33.6667 148.16 30.75C150.743 27.75 153.868 25.4583 157.535 23.875C161.202 22.2917 165.368 21.5 170.035 21.5C174.785 21.5 178.952 22.3333 182.535 24C186.202 25.6667 189.243 28 191.66 31C194.077 33.9167 195.868 37.3333 197.035 41.25C198.285 45.1667 198.91 49.375 198.91 53.875V59H154.285V61.125C154.285 66.125 155.743 70.25 158.66 73.5C161.66 76.667 165.91 78.25 171.41 78.25C175.41 78.25 178.785 77.375 181.535 75.625C184.285 73.875 186.618 71.5 188.535 68.5L196.535 76.375C194.118 80.375 190.618 83.583 186.035 86C181.452 88.333 176.118 89.5 170.035 89.5ZM170.035 32.125C167.702 32.125 165.535 32.5417 163.535 33.375C161.618 34.2083 159.952 35.375 158.535 36.875C157.202 38.375 156.16 40.1667 155.41 42.25C154.66 44.3333 154.285 46.625 154.285 49.125V50H184.535V48.75C184.535 43.75 183.243 39.75 180.66 36.75C178.077 33.6667 174.535 32.125 170.035 32.125ZM208.993 23H222.618V33.75H223.243C224.66 29.8333 226.951 26.8333 230.118 24.75C233.368 22.5833 237.16 21.5 241.493 21.5C249.743 21.5 256.118 24.5 260.618 30.5C265.118 36.4167 267.368 44.75 267.368 55.5C267.368 66.25 265.118 74.625 260.618 80.625C256.118 86.542 249.743 89.5 241.493 89.5C237.16 89.5 233.368 88.417 230.118 86.25C226.951 84.083 224.66 81.083 223.243 77.25H222.618V113H208.993V23ZM237.368 77.75C242.118 77.75 245.91 76.25 248.743 73.25C251.576 70.167 252.993 66.125 252.993 61.125V49.875C252.993 44.875 251.576 40.875 248.743 37.875C245.91 34.7917 242.118 33.25 237.368 33.25C233.201 33.25 229.702 34.2917 226.868 36.375C224.035 38.375 222.618 41.0417 222.618 44.375V66.625C222.618 69.958 224.035 72.667 226.868 74.75C229.702 76.75 233.201 77.75 237.368 77.75ZM333.468 88L325.593 64.375H292.968L285.343 88H270.968L300.718 0.75H318.468L348.218 88H333.468ZM309.593 13.75H308.968L296.343 52.25H322.093L309.593 13.75ZM352.981 88V76.5H364.856V12.25H352.981V0.75H390.981V12.25H378.981V76.5H390.981V88H352.981Z" fill="black"/>
</svg>
